<svg width="360" height="800" viewBox="0 0 360 800" fill="none" xmlns="http://www.w3.org/2000/svg">
<rect width="360" height="800" fill="white"/>
<rect width="360" height="384" fill="#F7F4FF"/>
<path d="M180 307C223.078 307 258 305.209 258 303C258 300.791 223.078 299 180 299C136.922 299 102 300.791 102 303C102 305.209 136.922 307 180 307Z" fill="#E6DDFF"/>
<path d="M236.429 133.514L235.276 232.377C231.205 265.273 172.892 291.389 172.892 291.389C172.892 291.389 114.57 265.298 110.474 232.377L109.288 133.514L171.613 113L236.429 133.514Z" fill="#6F45E9"/>
<path d="M228.295 139.772L227.294 228.542C223.745 257.232 172.883 280.009 172.883 280.009C172.883 280.009 122.022 257.232 118.481 228.542L117.413 139.772L171.773 121.882L228.295 139.772Z" fill="#E6DDFF"/>
<path d="M224.729 145.374L223.787 226.868C220.422 253.783 172.774 275.114 172.774 275.114C172.774 275.114 125.092 253.758 121.77 226.868L120.769 145.374L171.731 128.602L224.729 145.374Z" stroke="white" stroke-width="3" stroke-linecap="round" stroke-linejoin="round"/>
<path d="M214.098 215.695H210.784V216.536H214.098V215.695Z" fill="#6F45E9"/>
<path d="M228.338 215.695H217.529V216.536H228.338V215.695Z" fill="#6F45E9"/>
<path d="M248.12 201.337L246.026 225.309C245.917 226.368 245.424 227.351 244.64 228.071C243.856 228.792 242.835 229.201 241.77 229.22C241.269 229.228 240.772 229.131 240.311 228.933C239.851 228.734 239.438 228.441 239.1 228.071C238.762 227.701 238.506 227.263 238.35 226.787C238.194 226.311 238.142 225.807 238.195 225.309L240.273 201.337C240.466 199.549 240.277 197.741 239.718 196.031C239.16 194.322 238.244 192.751 237.032 191.423C235.819 190.095 234.339 189.039 232.687 188.327C231.036 187.614 229.253 187.261 227.454 187.291H218.909C215.087 187.363 211.423 188.832 208.61 191.419C205.796 194.007 204.026 197.535 203.634 201.337L202.793 211.128H194.971L195.812 201.337C196.864 189.276 207.537 179.469 219.59 179.469H228.169C230.969 179.422 233.746 179.972 236.316 181.081C238.887 182.19 241.192 183.834 243.078 185.902C244.965 187.97 246.391 190.416 247.26 193.077C248.129 195.738 248.422 198.554 248.12 201.337V201.337Z" fill="#6F45E9"/>
<g opacity="0.5">
<path d="M248.12 201.337L246.026 225.309C245.917 226.368 245.424 227.351 244.64 228.071C243.856 228.792 242.835 229.201 241.77 229.22C241.269 229.228 240.772 229.131 240.311 228.933C239.851 228.734 239.438 228.441 239.1 228.071C238.762 227.701 238.506 227.263 238.35 226.787C238.194 226.311 238.142 225.807 238.195 225.309L240.273 201.337C240.466 199.549 240.277 197.741 239.718 196.031C239.16 194.322 238.244 192.751 237.032 191.423C235.819 190.095 234.339 189.039 232.687 188.327C231.036 187.614 229.253 187.261 227.454 187.291H218.909C215.087 187.363 211.423 188.832 208.61 191.419C205.796 194.007 204.026 197.535 203.634 201.337L202.793 211.128H194.971L195.812 201.337C196.864 189.276 207.537 179.469 219.59 179.469H228.169C230.969 179.422 233.746 179.972 236.316 181.081C238.887 182.19 241.192 183.834 243.078 185.902C244.965 187.97 246.391 190.416 247.26 193.077C248.129 195.738 248.422 198.554 248.12 201.337V201.337Z" fill="white"/>
</g>
<path d="M248.684 224.434L244.604 271.148C244.456 272.597 243.782 273.941 242.709 274.925C241.637 275.909 240.24 276.466 238.784 276.489H192.069C191.385 276.502 190.706 276.368 190.078 276.098C189.449 275.827 188.885 275.426 188.424 274.921C187.962 274.416 187.613 273.818 187.401 273.167C187.188 272.517 187.117 271.829 187.191 271.148L191.279 224.434C191.373 223.502 191.685 222.606 192.191 221.818C192.697 221.031 193.381 220.373 194.189 219.9C195.066 219.363 196.071 219.073 197.099 219.059H243.805C244.76 219.054 245.696 219.319 246.505 219.824C247.261 220.314 247.865 221.005 248.25 221.819C248.635 222.634 248.785 223.539 248.684 224.434V224.434Z" fill="#6F45E9"/>
<path d="M200.11 244.839L212.247 263.52L252.275 223.492C252.337 223.417 252.37 223.324 252.369 223.227C252.367 223.13 252.331 223.037 252.267 222.965C252.203 222.893 252.115 222.846 252.019 222.833C251.924 222.82 251.826 222.842 251.745 222.894L213.601 252.796L206.393 241.18L200.11 244.839Z" fill="white"/>
<path d="M133.743 70.2037V59.1163H136.262V70.2037H133.743ZM130 59.4711V57.2537H140.005V59.4711H130Z" fill="#5732BF"/>
<path d="M147.016 70.2037V67.3476H146.608V64.1722C146.608 63.6163 146.472 63.2024 146.2 62.9304C145.928 62.6584 145.508 62.5224 144.941 62.5224C144.645 62.5224 144.29 62.5283 143.876 62.5401C143.462 62.5519 143.043 62.5697 142.617 62.5933C142.203 62.6052 141.83 62.6229 141.499 62.6466V60.5533C141.771 60.5296 142.079 60.506 142.422 60.4823C142.765 60.4587 143.114 60.4468 143.468 60.4468C143.835 60.435 144.178 60.4291 144.497 60.4291C145.491 60.4291 146.313 60.5592 146.963 60.8194C147.625 61.0795 148.122 61.4876 148.453 62.0434C148.796 62.5993 148.968 63.3266 148.968 64.2254V70.2037H147.016ZM143.912 70.4521C143.214 70.4521 142.599 70.3279 142.067 70.0795C141.547 69.8312 141.139 69.4764 140.843 69.0152C140.559 68.5539 140.417 67.9981 140.417 67.3476C140.417 66.638 140.589 66.0585 140.932 65.6091C141.286 65.1597 141.777 64.8226 142.404 64.5979C143.043 64.3732 143.788 64.2609 144.639 64.2609H146.874V65.7333H144.604C144.036 65.7333 143.598 65.8752 143.291 66.159C142.995 66.4311 142.847 66.7858 142.847 67.2234C142.847 67.661 142.995 68.0158 143.291 68.2878C143.598 68.5598 144.036 68.6958 144.604 68.6958C144.947 68.6958 145.26 68.6367 145.544 68.5184C145.84 68.3883 146.082 68.1755 146.271 67.8798C146.472 67.5723 146.585 67.1584 146.608 66.638L147.211 67.3299C147.152 68.004 146.987 68.5717 146.715 69.0329C146.455 69.4941 146.088 69.8489 145.615 70.0973C145.154 70.3338 144.586 70.4521 143.912 70.4521Z" fill="#5732BF"/>
<path d="M151.609 73.7517V60.571H153.56V64.7221L153.259 64.7044C153.306 63.7228 153.507 62.9008 153.862 62.2385C154.229 61.5763 154.713 61.0855 155.317 60.7661C155.92 60.435 156.594 60.2694 157.339 60.2694C158.025 60.2694 158.64 60.3936 159.184 60.642C159.74 60.8903 160.213 61.2392 160.603 61.6886C161.005 62.138 161.313 62.6643 161.526 63.2675C161.738 63.8588 161.845 64.4974 161.845 65.1834V65.5559C161.845 66.2537 161.738 66.9041 161.526 67.5073C161.325 68.0986 161.023 68.6249 160.621 69.0861C160.231 69.5355 159.758 69.8903 159.202 70.1505C158.646 70.3989 158.025 70.523 157.339 70.523C156.618 70.523 155.955 70.3752 155.352 70.0795C154.761 69.772 154.282 69.3049 153.915 68.6781C153.549 68.0395 153.342 67.2175 153.294 66.2123L154.075 67.4008V73.7517H151.609ZM156.718 68.4475C157.25 68.4475 157.712 68.3174 158.102 68.0572C158.504 67.797 158.817 67.4363 159.042 66.9751C159.267 66.502 159.379 65.9698 159.379 65.3785C159.379 64.7635 159.267 64.2313 159.042 63.7819C158.817 63.3325 158.504 62.9836 158.102 62.7353C157.712 62.4751 157.25 62.345 156.718 62.345C156.233 62.345 155.784 62.4514 155.37 62.6643C154.968 62.8772 154.637 63.1906 154.376 63.6045C154.128 64.0184 154.004 64.5152 154.004 65.0947V65.8042C154.004 66.3601 154.134 66.8332 154.394 67.2234C154.654 67.6137 154.991 67.9153 155.405 68.1282C155.819 68.341 156.257 68.4475 156.718 68.4475Z" fill="#5732BF"/>
<path d="M162.889 63.0901V61.7064H163.315C163.658 61.7064 163.93 61.6531 164.131 61.5467C164.332 61.4403 164.48 61.2629 164.574 61.0145C164.669 60.7543 164.716 60.4113 164.716 59.9856V58.6728L165.231 59.6663C165.148 59.7254 165.03 59.7786 164.876 59.8259C164.722 59.8614 164.562 59.8792 164.397 59.8792C164.007 59.8792 163.681 59.7609 163.421 59.5244C163.161 59.276 163.031 58.9389 163.031 58.5132C163.031 58.1111 163.155 57.774 163.403 57.502C163.652 57.2182 164.007 57.0763 164.468 57.0763C164.763 57.0763 165.035 57.1472 165.284 57.2891C165.544 57.4192 165.751 57.6558 165.905 57.9987C166.058 58.3299 166.135 58.7911 166.135 59.3824V59.684C166.135 60.5237 166.017 61.1919 165.78 61.6886C165.556 62.1853 165.225 62.546 164.787 62.7707C164.349 62.9836 163.817 63.0901 163.19 63.0901H162.889Z" fill="#5732BF"/>
<path d="M168.171 70.2037V60.571H170.122V64.7044H169.945C169.945 63.7228 170.075 62.9067 170.335 62.2563C170.595 61.594 170.98 61.0973 171.488 60.7661C172.008 60.435 172.653 60.2694 173.422 60.2694H173.528C174.675 60.2694 175.545 60.642 176.136 61.387C176.727 62.1203 177.023 63.2201 177.023 64.6866V70.2037H174.557V64.4738C174.557 63.8824 174.386 63.4035 174.043 63.0368C173.712 62.6702 173.25 62.4869 172.659 62.4869C172.056 62.4869 171.565 62.6761 171.187 63.0546C170.82 63.4212 170.637 63.9179 170.637 64.5447V70.2037H168.171Z" fill="#5732BF"/>
<path d="M182.033 66.23V64.048H184.552C185.061 64.048 185.487 63.9475 185.83 63.7464C186.184 63.5454 186.451 63.2675 186.628 62.9127C186.817 62.5579 186.912 62.1498 186.912 61.6886C186.912 61.2274 186.817 60.8194 186.628 60.4646C186.451 60.1098 186.184 59.8378 185.83 59.6485C185.487 59.4475 185.061 59.347 184.552 59.347H182.033V57.165H184.34C185.428 57.165 186.35 57.3424 187.107 57.6972C187.876 58.052 188.461 58.5605 188.863 59.2228C189.265 59.8732 189.466 60.6479 189.466 61.5467V61.8305C189.466 62.7293 189.265 63.5099 188.863 64.1722C188.461 64.8226 187.876 65.3312 187.107 65.6978C186.35 66.0526 185.428 66.23 184.34 66.23H182.033ZM179.869 70.2037V57.165H182.388V70.2037H179.869Z" fill="#5732BF"/>
<path d="M197.065 70.2037V67.3476H196.657V64.1722C196.657 63.6163 196.521 63.2024 196.249 62.9304C195.977 62.6584 195.558 62.5224 194.99 62.5224C194.694 62.5224 194.339 62.5283 193.926 62.5401C193.512 62.5519 193.092 62.5697 192.666 62.5933C192.252 62.6052 191.88 62.6229 191.548 62.6466V60.5533C191.82 60.5296 192.128 60.506 192.471 60.4823C192.814 60.4587 193.163 60.4468 193.518 60.4468C193.884 60.435 194.227 60.4291 194.546 60.4291C195.54 60.4291 196.362 60.5592 197.012 60.8194C197.675 61.0795 198.171 61.4876 198.502 62.0434C198.845 62.5993 199.017 63.3266 199.017 64.2254V70.2037H197.065ZM193.961 70.4521C193.263 70.4521 192.648 70.3279 192.116 70.0795C191.596 69.8312 191.188 69.4764 190.892 69.0152C190.608 68.5539 190.466 67.9981 190.466 67.3476C190.466 66.638 190.638 66.0585 190.981 65.6091C191.336 65.1597 191.826 64.8226 192.453 64.5979C193.092 64.3732 193.837 64.2609 194.688 64.2609H196.924V65.7333H194.653C194.085 65.7333 193.648 65.8752 193.34 66.159C193.044 66.4311 192.897 66.7858 192.897 67.2234C192.897 67.661 193.044 68.0158 193.34 68.2878C193.648 68.5598 194.085 68.6958 194.653 68.6958C194.996 68.6958 195.309 68.6367 195.593 68.5184C195.889 68.3883 196.131 68.1755 196.32 67.8798C196.521 67.5723 196.634 67.1584 196.657 66.638L197.261 67.3299C197.201 68.004 197.036 68.5717 196.764 69.0329C196.504 69.4941 196.137 69.8489 195.664 70.0973C195.203 70.3338 194.635 70.4521 193.961 70.4521Z" fill="#5732BF"/>
<path d="M201.253 74V71.889H203.062C203.405 71.889 203.689 71.8417 203.914 71.7471C204.151 71.6643 204.346 71.5224 204.499 71.3213C204.653 71.1321 204.771 70.866 204.854 70.523L207.444 60.571H209.804L206.948 71.0552C206.758 71.7766 206.492 72.3502 206.149 72.776C205.806 73.2136 205.363 73.527 204.819 73.7162C204.287 73.9054 203.624 74 202.832 74H201.253ZM204.251 69.9908V68.0395H206.309V69.9908H204.251ZM203.417 69.9908L200.295 60.571H202.779L205.741 69.9908H203.417Z" fill="#5732BF"/>
<path d="M218.136 53.9422C218.136 56.1194 216.371 57.8844 214.194 57.8844C212.017 57.8844 210.252 56.1194 210.252 53.9422C210.252 51.765 212.017 50 214.194 50C216.371 50 218.136 51.765 218.136 53.9422Z" fill="#FDC228"/>
<path d="M207.295 53.9424C207.295 55.031 206.413 55.9135 205.324 55.9135C204.235 55.9135 203.353 55.031 203.353 53.9424C203.353 52.8538 204.235 51.9713 205.324 51.9713C206.413 51.9713 207.295 52.8538 207.295 53.9424Z" fill="#FDC228"/>
</svg>
