<svg width="74" height="14" viewBox="0 0 74 14" fill="none" xmlns="http://www.w3.org/2000/svg">
<rect x="16.35" y="1" width="3.2" height="12" rx="1" fill="#191919"/>
<rect x="11.05" y="3.39999" width="3.2" height="9.6" rx="1" fill="#191919"/>
<rect x="5.75" y="6" width="3.2" height="7" rx="1" fill="#191919"/>
<rect x="0.449951" y="8.39999" width="3.2" height="4.6" rx="1" fill="#191919"/>
<path d="M33.0085 9.13354C33.7119 9.13354 34.3954 9.31839 34.9977 9.67086L35.2417 9.81367C35.4267 9.92194 35.4593 10.1753 35.3076 10.3266L33.2241 12.4043C33.0961 12.5319 32.8886 12.5319 32.7607 12.4043L30.6906 10.3399C30.5395 10.1893 30.571 9.93724 30.7545 9.82818L30.9957 9.68471C31.6035 9.32333 32.2957 9.13354 33.0085 9.13354Z" fill="#191919"/>
<path d="M33.0084 5.31683C34.7583 5.31683 36.4385 5.89735 37.8072 6.97241L38.0006 7.12434C38.1548 7.24547 38.1684 7.47371 38.0296 7.61214L36.7857 8.85254C36.6707 8.96727 36.4886 8.98044 36.3582 8.88349L36.2066 8.7708C35.2821 8.08376 34.1674 7.71523 33.0084 7.71523C31.8422 7.71523 30.721 8.08834 29.7935 8.78327L29.6417 8.89699C29.5113 8.99474 29.3286 8.98187 29.2132 8.8668L27.9698 7.62685C27.8312 7.48872 27.8444 7.26105 27.9979 7.1397L28.1902 6.98764C29.5622 5.903 31.25 5.31683 33.0084 5.31683Z" fill="#191919"/>
<path d="M33.0085 1.5C35.7856 1.5 38.4414 2.47963 40.5435 4.27524L40.723 4.42851C40.868 4.55237 40.8765 4.77314 40.7415 4.90777L39.5017 6.14415C39.3816 6.26393 39.1896 6.27232 39.0594 6.16348L38.9059 6.03512C37.2508 4.65119 35.1764 3.89839 33.0085 3.89839C30.8332 3.89839 28.7521 4.65638 27.0945 6.04896L26.941 6.17798C26.8108 6.28731 26.6184 6.27913 26.4981 6.15914L25.2585 4.92294C25.1236 4.78849 25.1319 4.5681 25.2765 4.44411L25.4552 4.29079C27.56 2.48548 30.2231 1.5 33.0085 1.5Z" fill="#191919"/>
<rect x="48" y="2.5" width="21" height="9" rx="1.33" fill="#191919"/>
<path opacity="0.4" fill-rule="evenodd" clip-rule="evenodd" d="M51.6 1.5H65.4C66.3966 1.5 67.0839 1.50078 67.6174 1.54436C68.1392 1.587 68.4251 1.66555 68.635 1.77248C69.1054 2.01217 69.4878 2.39462 69.7275 2.86502C69.8345 3.0749 69.913 3.36085 69.9556 3.88264C69.9992 4.4161 70 5.10341 70 6.1V7.9C70 8.89659 69.9992 9.5839 69.9556 10.1174C69.913 10.6392 69.8345 10.9251 69.7275 11.135C69.4878 11.6054 69.1054 11.9878 68.635 12.2275C68.4251 12.3345 68.1392 12.413 67.6174 12.4556C67.0839 12.4992 66.3966 12.5 65.4 12.5H51.6C50.6034 12.5 49.9161 12.4992 49.3826 12.4556C48.8608 12.413 48.5749 12.3345 48.365 12.2275C47.8946 11.9878 47.5122 11.6054 47.2725 11.135C47.1655 10.9251 47.087 10.6392 47.0444 10.1174C47.0008 9.5839 47 8.89659 47 7.9V6.1C47 5.10341 47.0008 4.4161 47.0444 3.88264C47.087 3.36085 47.1655 3.0749 47.2725 2.86502C47.5122 2.39462 47.8946 2.01217 48.365 1.77248C48.5749 1.66555 48.8608 1.587 49.3826 1.54436C49.9161 1.50078 50.6034 1.5 51.6 1.5ZM46 6.1C46 4.13982 46 3.15972 46.3815 2.41103C46.717 1.75247 47.2525 1.21703 47.911 0.881477C48.6597 0.5 49.6398 0.5 51.6 0.5H65.4C67.3602 0.5 68.3403 0.5 69.089 0.881477C69.7475 1.21703 70.283 1.75247 70.6185 2.41103C71 3.15972 71 4.13982 71 6.1V7.9C71 9.86018 71 10.8403 70.6185 11.589C70.283 12.2475 69.7475 12.783 69.089 13.1185C68.3403 13.5 67.3602 13.5 65.4 13.5H51.6C49.6398 13.5 48.6597 13.5 47.911 13.1185C47.2525 12.783 46.717 12.2475 46.3815 11.589C46 10.8403 46 9.86018 46 7.9V6.1ZM72 9C72.8284 8.8 73.5 8.10457 73.5 7C73.5 5.89543 72.8284 5.2 72 5L72 7L72 9Z" fill="#191919"/>
</svg>
