<svg width="360" height="808" viewBox="0 0 360 808" fill="none" xmlns="http://www.w3.org/2000/svg">
<rect width="360" height="808" fill="white"/>
<rect width="360" height="384" fill="#F7F4FF"/>
<path d="M179.843 315.631C231.671 315.631 273.686 313.154 273.686 310.098C273.686 307.041 231.671 304.564 179.843 304.564C128.015 304.564 86 307.041 86 310.098C86 313.154 128.015 315.631 179.843 315.631Z" fill="#E6DDFF"/>
<path d="M214.213 308.901H135.371C134.272 308.913 133.184 308.694 132.174 308.257C131.164 307.821 130.255 307.177 129.505 306.366C128.755 305.556 128.18 304.596 127.818 303.549C127.455 302.502 127.313 301.389 127.399 300.283L138.402 131.838C138.586 129.517 139.619 127.349 141.3 125.756C142.981 124.163 145.189 123.259 147.494 123.22H226.33C227.428 123.209 228.516 123.429 229.525 123.866C230.534 124.303 231.442 124.947 232.191 125.758C232.941 126.568 233.515 127.527 233.877 128.574C234.239 129.621 234.382 130.733 234.295 131.838L223.306 300.283C223.122 302.604 222.088 304.773 220.407 306.366C218.726 307.959 216.518 308.863 214.213 308.901Z" fill="#270685"/>
<path d="M230.812 168.517H221.267C221.002 168.52 220.74 168.467 220.496 168.362C220.252 168.256 220.033 168.101 219.852 167.905C219.671 167.71 219.533 167.478 219.445 167.226C219.358 166.973 219.323 166.705 219.344 166.438L220.295 151.848C220.348 151.293 220.602 150.778 221.008 150.4C221.415 150.023 221.944 149.81 222.496 149.803H232.034C232.296 149.8 232.556 149.852 232.797 149.956C233.038 150.059 233.255 150.211 233.436 150.403C233.616 150.595 233.756 150.822 233.846 151.071C233.935 151.319 233.974 151.584 233.958 151.848L233.006 166.438C232.962 166.998 232.713 167.522 232.308 167.906C231.902 168.291 231.369 168.509 230.812 168.517V168.517Z" fill="#270685"/>
<path d="M213.012 308.901H134.169C133.071 308.912 131.983 308.692 130.973 308.255C129.964 307.819 129.056 307.174 128.306 306.364C127.556 305.554 126.981 304.595 126.618 303.548C126.255 302.501 126.112 301.389 126.197 300.284L137.227 131.838C137.411 129.517 138.445 127.349 140.126 125.756C141.807 124.163 144.015 123.259 146.32 123.22H225.162C226.256 123.216 227.339 123.441 228.343 123.881C229.346 124.32 230.248 124.966 230.992 125.775C231.736 126.585 232.306 127.542 232.666 128.586C233.025 129.629 233.166 130.737 233.08 131.838L222.104 300.284C221.92 302.604 220.887 304.773 219.206 306.366C217.525 307.959 215.317 308.863 213.012 308.901Z" fill="#6F45E9"/>
<path d="M216.59 289.28H133.177C132.553 289.286 131.935 289.162 131.361 288.914C130.787 288.666 130.271 288.3 129.845 287.84C129.419 287.379 129.092 286.834 128.886 286.239C128.68 285.644 128.599 285.013 128.648 284.385L138.226 137.735C138.33 136.42 138.913 135.191 139.864 134.287C140.815 133.382 142.064 132.867 143.37 132.84H226.803C227.427 132.834 228.045 132.958 228.619 133.206C229.192 133.454 229.709 133.82 230.135 134.28C230.561 134.741 230.887 135.286 231.093 135.881C231.299 136.475 231.381 137.107 231.332 137.735L221.753 284.385C221.65 285.703 221.063 286.935 220.108 287.84C219.153 288.745 217.899 289.258 216.59 289.28V289.28Z" fill="white"/>
<path d="M201.03 132.84H184.465L144.335 289.28H160.9L201.03 132.84Z" fill="#EDEFF7"/>
<path d="M215.624 132.84H207.342L167.212 289.28H175.494L215.624 132.84Z" fill="#EDEFF7"/>
<path opacity="0.2" d="M177.898 300.927C180.063 298.812 180.23 295.438 178.27 293.392C176.311 291.346 172.967 291.403 170.802 293.518C168.637 295.633 168.47 299.007 170.43 301.053C172.39 303.098 175.733 303.042 177.898 300.927Z" fill="white"/>
<path opacity="0.2" d="M187.604 127.754C187.557 128.348 187.292 128.903 186.862 129.31C186.431 129.718 185.865 129.948 185.275 129.956C184.996 129.957 184.719 129.9 184.463 129.787C184.206 129.675 183.976 129.51 183.785 129.303C183.595 129.096 183.449 128.852 183.357 128.585C183.265 128.319 183.229 128.036 183.25 127.754C183.296 127.16 183.56 126.604 183.991 126.196C184.422 125.789 184.989 125.559 185.579 125.552C185.858 125.551 186.135 125.609 186.392 125.721C186.648 125.834 186.879 125.999 187.069 126.205C187.259 126.412 187.405 126.657 187.497 126.923C187.589 127.19 187.625 127.473 187.604 127.754V127.754Z" fill="white"/>
<path opacity="0.2" d="M186.619 127.754C186.595 128.081 186.451 128.387 186.214 128.612C185.978 128.836 185.667 128.964 185.343 128.968C185.188 128.97 185.034 128.94 184.892 128.879C184.749 128.817 184.621 128.727 184.516 128.612C184.41 128.498 184.329 128.363 184.279 128.215C184.228 128.067 184.209 127.91 184.222 127.754C184.246 127.427 184.39 127.121 184.626 126.897C184.862 126.672 185.174 126.545 185.498 126.541C185.653 126.538 185.806 126.569 185.949 126.63C186.091 126.691 186.22 126.782 186.325 126.896C186.431 127.01 186.511 127.146 186.562 127.294C186.612 127.441 186.632 127.598 186.619 127.754V127.754Z" fill="white"/>
<path d="M133.743 70.2037V59.1163H136.262V70.2037H133.743ZM130 59.4711V57.2537H140.005V59.4711H130Z" fill="#5732BF"/>
<path d="M147.016 70.2037V67.3476H146.608V64.1722C146.608 63.6163 146.472 63.2024 146.2 62.9304C145.928 62.6584 145.508 62.5224 144.941 62.5224C144.645 62.5224 144.29 62.5283 143.876 62.5401C143.462 62.5519 143.043 62.5697 142.617 62.5933C142.203 62.6052 141.83 62.6229 141.499 62.6466V60.5533C141.771 60.5296 142.079 60.506 142.422 60.4823C142.765 60.4587 143.114 60.4468 143.468 60.4468C143.835 60.435 144.178 60.4291 144.497 60.4291C145.491 60.4291 146.313 60.5592 146.963 60.8194C147.625 61.0795 148.122 61.4876 148.453 62.0434C148.796 62.5993 148.968 63.3266 148.968 64.2254V70.2037H147.016ZM143.912 70.4521C143.214 70.4521 142.599 70.3279 142.067 70.0795C141.547 69.8312 141.139 69.4764 140.843 69.0152C140.559 68.5539 140.417 67.9981 140.417 67.3476C140.417 66.638 140.589 66.0585 140.932 65.6091C141.286 65.1597 141.777 64.8226 142.404 64.5979C143.043 64.3732 143.788 64.2609 144.639 64.2609H146.874V65.7333H144.604C144.036 65.7333 143.598 65.8752 143.291 66.159C142.995 66.4311 142.847 66.7858 142.847 67.2234C142.847 67.661 142.995 68.0158 143.291 68.2878C143.598 68.5598 144.036 68.6958 144.604 68.6958C144.947 68.6958 145.26 68.6367 145.544 68.5184C145.84 68.3883 146.082 68.1755 146.271 67.8798C146.472 67.5723 146.585 67.1584 146.608 66.638L147.211 67.3299C147.152 68.004 146.987 68.5717 146.715 69.0329C146.455 69.4941 146.088 69.8489 145.615 70.0973C145.154 70.3338 144.586 70.4521 143.912 70.4521Z" fill="#5732BF"/>
<path d="M151.609 73.7517V60.571H153.56V64.7221L153.259 64.7044C153.306 63.7228 153.507 62.9008 153.862 62.2385C154.229 61.5763 154.713 61.0855 155.317 60.7661C155.92 60.435 156.594 60.2694 157.339 60.2694C158.025 60.2694 158.64 60.3936 159.184 60.642C159.74 60.8903 160.213 61.2392 160.603 61.6886C161.005 62.138 161.313 62.6643 161.526 63.2675C161.738 63.8588 161.845 64.4974 161.845 65.1834V65.5559C161.845 66.2537 161.738 66.9041 161.526 67.5073C161.325 68.0986 161.023 68.6249 160.621 69.0861C160.231 69.5355 159.758 69.8903 159.202 70.1505C158.646 70.3989 158.025 70.523 157.339 70.523C156.618 70.523 155.955 70.3752 155.352 70.0795C154.761 69.772 154.282 69.3049 153.915 68.6781C153.549 68.0395 153.342 67.2175 153.294 66.2123L154.075 67.4008V73.7517H151.609ZM156.718 68.4475C157.25 68.4475 157.712 68.3174 158.102 68.0572C158.504 67.797 158.817 67.4363 159.042 66.9751C159.267 66.502 159.379 65.9698 159.379 65.3785C159.379 64.7635 159.267 64.2313 159.042 63.7819C158.817 63.3325 158.504 62.9836 158.102 62.7353C157.712 62.4751 157.25 62.345 156.718 62.345C156.233 62.345 155.784 62.4514 155.37 62.6643C154.968 62.8772 154.637 63.1906 154.376 63.6045C154.128 64.0184 154.004 64.5152 154.004 65.0947V65.8042C154.004 66.3601 154.134 66.8332 154.394 67.2234C154.654 67.6137 154.991 67.9153 155.405 68.1282C155.819 68.341 156.257 68.4475 156.718 68.4475Z" fill="#5732BF"/>
<path d="M162.889 63.0901V61.7064H163.315C163.658 61.7064 163.93 61.6531 164.131 61.5467C164.332 61.4403 164.48 61.2629 164.574 61.0145C164.669 60.7543 164.716 60.4113 164.716 59.9856V58.6728L165.231 59.6663C165.148 59.7254 165.03 59.7786 164.876 59.8259C164.722 59.8614 164.562 59.8792 164.397 59.8792C164.007 59.8792 163.681 59.7609 163.421 59.5244C163.161 59.276 163.031 58.9389 163.031 58.5132C163.031 58.1111 163.155 57.774 163.403 57.502C163.652 57.2182 164.007 57.0763 164.468 57.0763C164.763 57.0763 165.035 57.1472 165.284 57.2891C165.544 57.4192 165.751 57.6558 165.905 57.9987C166.058 58.3299 166.135 58.7911 166.135 59.3824V59.684C166.135 60.5237 166.017 61.1919 165.78 61.6886C165.556 62.1853 165.225 62.546 164.787 62.7707C164.349 62.9836 163.817 63.0901 163.19 63.0901H162.889Z" fill="#5732BF"/>
<path d="M168.171 70.2037V60.571H170.122V64.7044H169.945C169.945 63.7228 170.075 62.9067 170.335 62.2563C170.595 61.594 170.98 61.0973 171.488 60.7661C172.008 60.435 172.653 60.2694 173.422 60.2694H173.528C174.675 60.2694 175.545 60.642 176.136 61.387C176.727 62.1203 177.023 63.2201 177.023 64.6866V70.2037H174.557V64.4738C174.557 63.8824 174.386 63.4035 174.043 63.0368C173.712 62.6702 173.25 62.4869 172.659 62.4869C172.056 62.4869 171.565 62.6761 171.187 63.0546C170.82 63.4212 170.637 63.9179 170.637 64.5447V70.2037H168.171Z" fill="#5732BF"/>
<path d="M182.033 66.23V64.048H184.552C185.061 64.048 185.487 63.9475 185.83 63.7464C186.184 63.5454 186.451 63.2675 186.628 62.9127C186.817 62.5579 186.912 62.1498 186.912 61.6886C186.912 61.2274 186.817 60.8194 186.628 60.4646C186.451 60.1098 186.184 59.8378 185.83 59.6485C185.487 59.4475 185.061 59.347 184.552 59.347H182.033V57.165H184.34C185.428 57.165 186.35 57.3424 187.107 57.6972C187.876 58.052 188.461 58.5605 188.863 59.2228C189.265 59.8732 189.466 60.6479 189.466 61.5467V61.8305C189.466 62.7293 189.265 63.5099 188.863 64.1722C188.461 64.8226 187.876 65.3312 187.107 65.6978C186.35 66.0526 185.428 66.23 184.34 66.23H182.033ZM179.869 70.2037V57.165H182.388V70.2037H179.869Z" fill="#5732BF"/>
<path d="M197.065 70.2037V67.3476H196.657V64.1722C196.657 63.6163 196.521 63.2024 196.249 62.9304C195.977 62.6584 195.558 62.5224 194.99 62.5224C194.694 62.5224 194.339 62.5283 193.926 62.5401C193.512 62.5519 193.092 62.5697 192.666 62.5933C192.252 62.6052 191.88 62.6229 191.548 62.6466V60.5533C191.82 60.5296 192.128 60.506 192.471 60.4823C192.814 60.4587 193.163 60.4468 193.518 60.4468C193.884 60.435 194.227 60.4291 194.546 60.4291C195.54 60.4291 196.362 60.5592 197.012 60.8194C197.675 61.0795 198.171 61.4876 198.502 62.0434C198.845 62.5993 199.017 63.3266 199.017 64.2254V70.2037H197.065ZM193.961 70.4521C193.263 70.4521 192.648 70.3279 192.116 70.0795C191.596 69.8312 191.188 69.4764 190.892 69.0152C190.608 68.5539 190.466 67.9981 190.466 67.3476C190.466 66.638 190.638 66.0585 190.981 65.6091C191.336 65.1597 191.826 64.8226 192.453 64.5979C193.092 64.3732 193.837 64.2609 194.688 64.2609H196.924V65.7333H194.653C194.085 65.7333 193.648 65.8752 193.34 66.159C193.044 66.4311 192.897 66.7858 192.897 67.2234C192.897 67.661 193.044 68.0158 193.34 68.2878C193.648 68.5598 194.085 68.6958 194.653 68.6958C194.996 68.6958 195.309 68.6367 195.593 68.5184C195.889 68.3883 196.131 68.1755 196.32 67.8798C196.521 67.5723 196.634 67.1584 196.657 66.638L197.261 67.3299C197.201 68.004 197.036 68.5717 196.764 69.0329C196.504 69.4941 196.137 69.8489 195.664 70.0973C195.203 70.3338 194.635 70.4521 193.961 70.4521Z" fill="#5732BF"/>
<path d="M201.253 74V71.889H203.062C203.405 71.889 203.689 71.8417 203.914 71.7471C204.151 71.6643 204.346 71.5224 204.499 71.3213C204.653 71.1321 204.771 70.866 204.854 70.523L207.444 60.571H209.804L206.948 71.0552C206.758 71.7766 206.492 72.3502 206.149 72.776C205.806 73.2136 205.363 73.527 204.819 73.7162C204.287 73.9054 203.624 74 202.832 74H201.253ZM204.251 69.9908V68.0395H206.309V69.9908H204.251ZM203.417 69.9908L200.295 60.571H202.779L205.741 69.9908H203.417Z" fill="#5732BF"/>
<path d="M218.136 53.9422C218.136 56.1194 216.371 57.8844 214.194 57.8844C212.017 57.8844 210.252 56.1194 210.252 53.9422C210.252 51.765 212.017 50 214.194 50C216.371 50 218.136 51.765 218.136 53.9422Z" fill="#FDC228"/>
<path d="M207.295 53.9424C207.295 55.031 206.413 55.9135 205.324 55.9135C204.235 55.9135 203.353 55.031 203.353 53.9424C203.353 52.8538 204.235 51.9713 205.324 51.9713C206.413 51.9713 207.295 52.8538 207.295 53.9424Z" fill="#FDC228"/>
</svg>
